<?xml version="1.0" encoding="UTF-8" standalone="no"?>
<!DOCTYPE svg PUBLIC "-//W3C//DTD SVG 1.1//EN"
 "http://www.w3.org/Graphics/SVG/1.1/DTD/svg11.dtd">
<!-- Generated by graphviz version 2.43.0 (0)
 -->
<!-- Title: protodot Pages: 1 -->
<svg width="780pt" height="216pt"
 viewBox="0.00 0.00 780.00 215.50" xmlns="http://www.w3.org/2000/svg" xmlns:xlink="http://www.w3.org/1999/xlink">
<g id="graph0" class="graph" transform="scale(1 1) rotate(0) translate(4 211.5)">
<title>protodot</title>
<g id="a_graph0"><a xlink:title="grpc.health.v1">
<text text-anchor="middle" x="386" y="-7.8" font-family="Times,serif" font-size="14.00">grpc.health.v1</text>
</a>
</g>
<g id="clust1" class="cluster">
<title>cluster_efd015169d3a</title>
<g id="a_clust1"><a xlink:title="grpc.health.v1">
<polygon fill="#caff70" stroke="black" points="555,-31 555,-176 764,-176 764,-31 555,-31"/>
<text text-anchor="middle" x="659.5" y="-160.8" font-family="Times,serif" font-size="14.00">grpc.health.v1</text>
</a>
</g>
</g>
<!-- Node_Ja_100 -->
<g id="node1" class="node">
<title>Node_Ja_100</title>
<g id="a_node1"><a xlink:title="grpc.health.v1.HealthCheckRequest">
<polygon fill="#fffaf0" stroke="transparent" points="339,-148 339,-188 514,-188 514,-148 339,-148"/>
<polygon fill="#e31a1c" stroke="transparent" points="340.5,-168 340.5,-187 513.5,-187 513.5,-168 340.5,-168"/>
<text text-anchor="start" x="342.5" y="-174.8" font-family="Times,serif" font-weight="bold" font-size="14.00">HealthCheckRequest</text>
<text text-anchor="start" x="385.5" y="-154.8" font-family="Times,serif" font-size="14.00">1</text>
<text text-anchor="start" x="399.5" y="-154.8" font-family="Times,serif" font-size="14.00">service</text>
<polygon fill="#a6cee3" stroke="transparent" points="459.5,-149 459.5,-168 513.5,-168 513.5,-149 459.5,-149"/>
<text text-anchor="start" x="468.5" y="-155.8" font-family="Times,serif" font-style="italic" font-size="14.00">string</text>
<polygon fill="none" stroke="black" points="339,-148 339,-188 514,-188 514,-148 339,-148"/>
</a>
</g>
</g>
<!-- Node_Ja_101 -->
<g id="node2" class="node">
<title>Node_Ja_101</title>
<g id="a_node2"><a xlink:title="grpc.health.v1.HealthCheckResponse">
<polygon fill="#fffaf0" stroke="transparent" points="334,-82 334,-122 519,-122 519,-82 334,-82"/>
<polygon fill="#e31a1c" stroke="transparent" points="335.5,-102 335.5,-121 518.5,-121 518.5,-102 335.5,-102"/>
<text text-anchor="start" x="337.5" y="-108.8" font-family="Times,serif" font-weight="bold" font-size="14.00">HealthCheckResponse</text>
<text text-anchor="start" x="347.5" y="-88.8" font-family="Times,serif" font-size="14.00">1</text>
<text text-anchor="start" x="361.5" y="-88.8" font-family="Times,serif" font-size="14.00">status</text>
<polygon fill="#b2df8a" stroke="transparent" points="409.5,-83 409.5,-102 518.5,-102 518.5,-83 409.5,-83"/>
<text text-anchor="start" x="413.5" y="-89.8" font-family="Times,serif" text-decoration="underline" font-size="14.00">ServingStatus</text>
<polygon fill="none" stroke="black" points="334,-82 334,-122 519,-122 519,-82 334,-82"/>
</a>
</g>
</g>
<!-- Node_Ja_102 -->
<g id="node3" class="node">
<title>Node_Ja_102</title>
<g id="a_node3"><a xlink:title="ServingStatus">
<polygon fill="#b2df8a" stroke="transparent" points="571,-43.5 571,-140.5 748,-140.5 748,-43.5 571,-43.5"/>
<polygon fill="#33a02c" stroke="transparent" points="572.5,-120 572.5,-139 747.5,-139 747.5,-120 572.5,-120"/>
<text text-anchor="start" x="588.5" y="-126.8" font-family="Times,serif" font-size="14.00">enum </text>
<text text-anchor="start" x="633.5" y="-126.8" font-family="Times,serif" font-weight="bold" font-size="14.00">ServingStatus</text>
<polygon fill="#b2df8a" stroke="transparent" points="572.5,-101 572.5,-120 733.5,-120 733.5,-101 572.5,-101"/>
<text text-anchor="start" x="574.5" y="-106.8" font-family="Times,serif" font-size="14.00">UNKNOWN</text>
<polygon fill="#b2df8a" stroke="transparent" points="733.5,-101 733.5,-120 747.5,-120 747.5,-101 733.5,-101"/>
<text text-anchor="start" x="735.5" y="-106.8" font-family="Times,serif" font-size="14.00">0</text>
<polygon fill="#b2df8a" stroke="transparent" points="572.5,-82 572.5,-101 733.5,-101 733.5,-82 572.5,-82"/>
<text text-anchor="start" x="574.5" y="-87.8" font-family="Times,serif" font-size="14.00">SERVING</text>
<polygon fill="#b2df8a" stroke="transparent" points="733.5,-82 733.5,-101 747.5,-101 747.5,-82 733.5,-82"/>
<text text-anchor="start" x="735.5" y="-87.8" font-family="Times,serif" font-size="14.00">1</text>
<polygon fill="#b2df8a" stroke="transparent" points="572.5,-63 572.5,-82 733.5,-82 733.5,-63 572.5,-63"/>
<text text-anchor="start" x="574.5" y="-68.8" font-family="Times,serif" font-size="14.00">NOT_SERVING</text>
<polygon fill="#b2df8a" stroke="transparent" points="733.5,-63 733.5,-82 747.5,-82 747.5,-63 733.5,-63"/>
<text text-anchor="start" x="735.5" y="-68.8" font-family="Times,serif" font-size="14.00">2</text>
<polygon fill="#b2df8a" stroke="transparent" points="572.5,-44 572.5,-63 733.5,-63 733.5,-44 572.5,-44"/>
<text text-anchor="start" x="574.5" y="-49.8" font-family="Times,serif" font-size="14.00">SERVICE_UNKNOWN</text>
<polygon fill="#b2df8a" stroke="transparent" points="733.5,-44 733.5,-63 747.5,-63 747.5,-44 733.5,-44"/>
<text text-anchor="start" x="735.5" y="-49.8" font-family="Times,serif" font-size="14.00">3</text>
<polygon fill="none" stroke="black" points="571,-43.5 571,-140.5 748,-140.5 748,-43.5 571,-43.5"/>
</a>
</g>
</g>
<!-- Node_Ja_101&#45;&gt;Node_Ja_102 -->
<g id="edge1" class="edge">
<title>Node_Ja_101:e&#45;&gt;Node_Ja_102</title>
<g id="a_edge1"><a xlink:title="Ja_101 &#45;&#45;&gt; Ja_102">
<path fill="none" stroke="#008000" d="M519.5,-92C530.22,-92 541.4,-92 552.56,-92"/>
<polygon fill="#008000" stroke="#008000" points="552.79,-95.5 562.79,-92 552.79,-88.5 552.79,-95.5"/>
</a>
</g>
</g>
<!-- Node_Ja_103 -->
<g id="node4" class="node">
<title>Node_Ja_103</title>
<g id="a_node4"><a xlink:title="Health">
<polygon fill="#ffd700" stroke="transparent" points="8,-106.5 8,-203.5 282,-203.5 282,-106.5 8,-106.5"/>
<polygon fill="#ff7f50" stroke="transparent" points="9,-183 9,-202 281,-202 281,-183 9,-183"/>
<text text-anchor="start" x="224" y="-189.8" font-family="Times,serif" font-weight="bold" font-size="14.00">Health</text>
<text text-anchor="start" x="11" y="-170.8" font-family="Times,serif" font-weight="bold" font-size="14.00">Check</text>
<text text-anchor="start" x="128" y="-169.8" font-family="Times,serif" font-size="14.00">HealthCheckRequest</text>
<polygon fill="#ff7f50" stroke="transparent" points="62,-145 62,-164 117,-164 117,-145 62,-145"/>
<polygon fill="#ff7f50" stroke="transparent" points="117,-145 117,-164 281,-164 281,-145 117,-145"/>
<text text-anchor="start" x="119" y="-150.8" font-family="Times,serif" font-size="14.00">HealthCheckResponse</text>
<text text-anchor="start" x="11" y="-132.8" font-family="Times,serif" font-weight="bold" font-size="14.00">Watch</text>
<text text-anchor="start" x="128" y="-131.8" font-family="Times,serif" font-size="14.00">HealthCheckRequest</text>
<polygon fill="#ff7f50" stroke="transparent" points="62,-107 62,-126 117,-126 117,-107 62,-107"/>
<text text-anchor="start" x="64" y="-112.8" font-family="Times,serif" font-size="14.00">stream</text>
<polygon fill="#ff7f50" stroke="transparent" points="117,-107 117,-126 281,-126 281,-107 117,-107"/>
<text text-anchor="start" x="119" y="-112.8" font-family="Times,serif" font-size="14.00">HealthCheckResponse</text>
<polygon fill="none" stroke="black" points="8,-106.5 8,-203.5 282,-203.5 282,-106.5 8,-106.5"/>
</a>
</g>
</g>
<!-- Node_Ja_103&#45;&gt;Node_Ja_100 -->
<g id="edge2" class="edge">
<title>Node_Ja_103:e&#45;&gt;Node_Ja_100:header</title>
<g id="a_edge2"><a xlink:title="Ja_103 &#45;&#45;&gt; Ja_100">
<path fill="none" stroke="#000000" d="M282,-174C303.81,-174 311.6,-176.9 329.24,-177.76"/>
<polygon fill="#000000" stroke="#000000" points="329.42,-181.27 339.5,-178 329.58,-174.27 329.42,-181.27"/>
</a>
</g>
</g>
<!-- Node_Ja_103&#45;&gt;Node_Ja_100 -->
<g id="edge4" class="edge">
<title>Node_Ja_103:e&#45;&gt;Node_Ja_100:header</title>
<g id="a_edge4"><a xlink:title="Ja_103 &#45;&#45;&gt; Ja_100">
<path fill="none" stroke="#000000" d="M282,-135C310.05,-135 308.56,-168.22 329.45,-176.26"/>
<polygon fill="#000000" stroke="#000000" points="329.05,-179.74 339.5,-178 330.24,-172.85 329.05,-179.74"/>
</a>
</g>
</g>
<!-- Node_Ja_103&#45;&gt;Node_Ja_101 -->
<g id="edge3" class="edge">
<title>Node_Ja_103:e&#45;&gt;Node_Ja_101:header</title>
<g id="a_edge3"><a xlink:title="Ja_103 &#45;&#45;&gt; Ja_101">
<path fill="none" stroke="#000000" d="M282,-154C307.91,-154 305.89,-122.42 324.39,-114.03"/>
<polygon fill="#000000" stroke="#000000" points="325.38,-117.4 334.5,-112 324.01,-110.53 325.38,-117.4"/>
</a>
</g>
</g>
<!-- Node_Ja_103&#45;&gt;Node_Ja_101 -->
<g id="edge5" class="edge">
<title>Node_Ja_103:e&#45;&gt;Node_Ja_101:header</title>
<g id="a_edge5"><a xlink:title="Ja_103 &#45;&#45;&gt; Ja_101">
<path fill="none" stroke="#000000" d="M282,-116C301.56,-116 308.75,-113.2 324.26,-112.29"/>
<polygon fill="#000000" stroke="#000000" points="324.6,-115.78 334.5,-112 324.41,-108.78 324.6,-115.78"/>
</a>
</g>
</g>
</g>
</svg>
