<?xml version="1.0" encoding="UTF-8" standalone="no"?>
<!DOCTYPE svg PUBLIC "-//W3C//DTD SVG 1.1//EN"
 "http://www.w3.org/Graphics/SVG/1.1/DTD/svg11.dtd">
<!-- Generated by graphviz version 2.43.0 (0)
 -->
<!-- Title: protodot Pages: 1 -->
<svg width="936pt" height="701pt"
 viewBox="0.00 0.00 936.00 701.00" xmlns="http://www.w3.org/2000/svg" xmlns:xlink="http://www.w3.org/1999/xlink">
<g id="graph0" class="graph" transform="scale(1 1) rotate(0) translate(4 697)">
<title>protodot</title>
<g id="a_graph0"><a xlink:title="rsdk.examples.v1">
<text text-anchor="middle" x="464" y="-7.8" font-family="Times,serif" font-size="14.00">rsdk.examples.v1</text>
</a>
</g>
<g id="clust1" class="cluster">
<title>cluster_05aca01382df</title>
<g id="a_clust1"><a xlink:title="rsdk/examples/v1/stored_object.proto">
<polygon fill="#caff70" stroke="black" points="738,-109 738,-234 906,-234 906,-109 738,-109"/>
<text text-anchor="middle" x="822" y="-218.8" font-family="Times,serif" font-size="14.00">stored_object.proto</text>
</a>
</g>
</g>
<g id="clust2" class="cluster">
<title>cluster_71fa3eb2ad6c</title>
<g id="a_clust2"><a xlink:title="rsdk/examples/v1/object.proto">
<polygon fill="#caff70" stroke="black" points="724,-308 724,-433 920,-433 920,-308 724,-308"/>
<text text-anchor="middle" x="822" y="-417.8" font-family="Times,serif" font-size="14.00">object.proto</text>
</a>
</g>
</g>
<!-- Node_Ja_102 -->
<g id="node1" class="node">
<title>Node_Ja_102</title>
<g id="a_node1"><a xlink:title="ObjectStorageClientService">
<polygon fill="#ffd700" stroke="transparent" points="8,-246.5 8,-457.5 408,-457.5 408,-246.5 8,-246.5"/>
<polygon fill="#ff7f50" stroke="transparent" points="9,-437 9,-456 407,-456 407,-437 9,-437"/>
<text text-anchor="start" x="188" y="-443.8" font-family="Times,serif" font-weight="bold" font-size="14.00">ObjectStorageClientService</text>
<text text-anchor="start" x="11" y="-424.8" font-family="Times,serif" font-weight="bold" font-size="14.00">GetObject</text>
<text text-anchor="start" x="274" y="-423.8" font-family="Times,serif" font-size="14.00">GetObjectRequest</text>
<polygon fill="#ff7f50" stroke="transparent" points="152,-399 152,-418 207,-418 207,-399 152,-399"/>
<polygon fill="#ff7f50" stroke="transparent" points="207,-399 207,-418 407,-418 407,-399 207,-399"/>
<text text-anchor="start" x="264" y="-404.8" font-family="Times,serif" font-size="14.00">GetObjectResponse</text>
<text text-anchor="start" x="11" y="-386.8" font-family="Times,serif" font-weight="bold" font-size="14.00">GetObjectStream</text>
<text text-anchor="start" x="221" y="-385.8" font-family="Times,serif" font-size="14.00">GetObjectStreamRequest</text>
<polygon fill="#ff7f50" stroke="transparent" points="152,-361 152,-380 207,-380 207,-361 152,-361"/>
<text text-anchor="start" x="154" y="-366.8" font-family="Times,serif" font-size="14.00">stream</text>
<polygon fill="#ff7f50" stroke="transparent" points="207,-361 207,-380 407,-380 407,-361 207,-361"/>
<text text-anchor="start" x="212" y="-366.8" font-family="Times,serif" font-size="14.00">GetObjectStreamResponse</text>
<text text-anchor="start" x="11" y="-348.8" font-family="Times,serif" font-weight="bold" font-size="14.00">AddObject</text>
<text text-anchor="start" x="272" y="-347.8" font-family="Times,serif" font-size="14.00">AddObjectRequest</text>
<polygon fill="#ff7f50" stroke="transparent" points="152,-323 152,-342 207,-342 207,-323 152,-323"/>
<polygon fill="#ff7f50" stroke="transparent" points="207,-323 207,-342 407,-342 407,-323 207,-323"/>
<text text-anchor="start" x="262" y="-328.8" font-family="Times,serif" font-size="14.00">AddObjectResponse</text>
<text text-anchor="start" x="11" y="-310.8" font-family="Times,serif" font-weight="bold" font-size="14.00">AddObjectStream</text>
<text text-anchor="start" x="154" y="-309.8" font-family="Times,serif" font-size="14.00">stream</text>
<text text-anchor="start" x="219" y="-309.8" font-family="Times,serif" font-size="14.00">AddObjectStreamRequest</text>
<polygon fill="#ff7f50" stroke="transparent" points="152,-285 152,-304 207,-304 207,-285 152,-285"/>
<polygon fill="#ff7f50" stroke="transparent" points="207,-285 207,-304 407,-304 407,-285 207,-285"/>
<text text-anchor="start" x="209" y="-290.8" font-family="Times,serif" font-size="14.00">AddObjectStreamResponse</text>
<text text-anchor="start" x="11" y="-272.8" font-family="Times,serif" font-weight="bold" font-size="14.00">RemoveObject</text>
<text text-anchor="start" x="242" y="-271.8" font-family="Times,serif" font-size="14.00">RemoveObjectRequest</text>
<polygon fill="#ff7f50" stroke="transparent" points="152,-247 152,-266 207,-266 207,-247 152,-247"/>
<polygon fill="#ff7f50" stroke="transparent" points="207,-247 207,-266 407,-266 407,-247 207,-247"/>
<text text-anchor="start" x="233" y="-252.8" font-family="Times,serif" font-size="14.00">RemoveObjectResponse</text>
<polygon fill="none" stroke="black" points="8,-246.5 8,-457.5 408,-457.5 408,-246.5 8,-246.5"/>
</a>
</g>
</g>
<!-- Node_Ja_114 -->
<g id="node2" class="node">
<title>Node_Ja_114</title>
<g id="a_node2"><a xlink:title="rsdk.examples.v1.AddObjectStreamRequest">
<polygon fill="#fffaf0" stroke="transparent" points="469,-213 469,-253 679,-253 679,-213 469,-213"/>
<polygon fill="#e31a1c" stroke="transparent" points="470,-233 470,-252 678,-252 678,-233 470,-233"/>
<text text-anchor="start" x="472" y="-239.8" font-family="Times,serif" font-weight="bold" font-size="14.00">AddObjectStreamRequest</text>
<text text-anchor="start" x="540" y="-219.8" font-family="Times,serif" font-size="14.00">1</text>
<text text-anchor="start" x="554" y="-219.8" font-family="Times,serif" font-size="14.00">object</text>
<polygon fill="#fb9a99" stroke="transparent" points="611,-214 611,-233 678,-233 678,-214 611,-214"/>
<text text-anchor="start" x="624" y="-220.8" font-family="Times,serif" font-weight="bold" font-size="14.00">Object</text>
<polygon fill="none" stroke="black" points="469,-213 469,-253 679,-253 679,-213 469,-213"/>
</a>
</g>
</g>
<!-- Node_Ja_102&#45;&gt;Node_Ja_114 -->
<g id="edge1" class="edge">
<title>Node_Ja_102:e&#45;&gt;Node_Ja_114:header</title>
<g id="a_edge1"><a xlink:title="Ja_102 &#45;&#45;&gt; Ja_114">
<path fill="none" stroke="#000000" d="M408,-313C445.4,-313 431.22,-255.51 458.95,-244.73"/>
<polygon fill="#000000" stroke="#000000" points="459.74,-248.15 469,-243 458.55,-241.25 459.74,-248.15"/>
</a>
</g>
</g>
<!-- Node_Ja_115 -->
<g id="node3" class="node">
<title>Node_Ja_115</title>
<g id="a_node3"><a xlink:title="rsdk.examples.v1.AddObjectStreamResponse">
<polygon fill="#fffaf0" stroke="transparent" points="460,-147 460,-187 688,-187 688,-147 460,-147"/>
<polygon fill="#e31a1c" stroke="transparent" points="461,-167 461,-186 687,-186 687,-167 461,-167"/>
<text text-anchor="start" x="471" y="-173.8" font-family="Times,serif" font-weight="bold" font-size="14.00">AddObjectStreamResponse</text>
<text text-anchor="start" x="467" y="-153.8" font-family="Times,serif" font-size="14.00">1</text>
<text text-anchor="start" x="481" y="-153.8" font-family="Times,serif" font-size="14.00">stored_object</text>
<polygon fill="#fb9a99" stroke="transparent" points="580,-148 580,-167 687,-167 687,-148 580,-148"/>
<text text-anchor="start" x="582" y="-154.8" font-family="Times,serif" font-weight="bold" font-size="14.00">StoredObject</text>
<polygon fill="none" stroke="black" points="460,-147 460,-187 688,-187 688,-147 460,-147"/>
</a>
</g>
</g>
<!-- Node_Ja_102&#45;&gt;Node_Ja_115 -->
<g id="edge2" class="edge">
<title>Node_Ja_102:e&#45;&gt;Node_Ja_115:header</title>
<g id="a_edge2"><a xlink:title="Ja_102 &#45;&#45;&gt; Ja_115">
<path fill="none" stroke="#000000" d="M408,-294C460.9,-294 411.2,-192.87 449.67,-178.65"/>
<polygon fill="#000000" stroke="#000000" points="450.68,-182.04 460,-177 449.57,-175.13 450.68,-182.04"/>
</a>
</g>
</g>
<!-- Node_Ja_112 -->
<g id="node4" class="node">
<title>Node_Ja_112</title>
<g id="a_node4"><a xlink:title="rsdk.examples.v1.AddObjectRequest">
<polygon fill="#fffaf0" stroke="transparent" points="497.5,-345 497.5,-385 650.5,-385 650.5,-345 497.5,-345"/>
<polygon fill="#e31a1c" stroke="transparent" points="499,-365 499,-384 650,-384 650,-365 499,-365"/>
<text text-anchor="start" x="501" y="-371.8" font-family="Times,serif" font-weight="bold" font-size="14.00">AddObjectRequest</text>
<text text-anchor="start" x="526" y="-351.8" font-family="Times,serif" font-size="14.00">1</text>
<text text-anchor="start" x="540" y="-351.8" font-family="Times,serif" font-size="14.00">object</text>
<polygon fill="#fb9a99" stroke="transparent" points="590,-346 590,-365 650,-365 650,-346 590,-346"/>
<text text-anchor="start" x="596" y="-352.8" font-family="Times,serif" font-weight="bold" font-size="14.00">Object</text>
<polygon fill="none" stroke="black" points="497.5,-345 497.5,-385 650.5,-385 650.5,-345 497.5,-345"/>
</a>
</g>
</g>
<!-- Node_Ja_102&#45;&gt;Node_Ja_112 -->
<g id="edge3" class="edge">
<title>Node_Ja_102:e&#45;&gt;Node_Ja_112:header</title>
<g id="a_edge3"><a xlink:title="Ja_102 &#45;&#45;&gt; Ja_112">
<path fill="none" stroke="#000000" d="M408,-351C445.68,-351 455.03,-370.88 487.62,-374.45"/>
<polygon fill="#000000" stroke="#000000" points="487.83,-377.97 498,-375 488.2,-370.98 487.83,-377.97"/>
</a>
</g>
</g>
<!-- Node_Ja_113 -->
<g id="node5" class="node">
<title>Node_Ja_113</title>
<g id="a_node5"><a xlink:title="rsdk.examples.v1.AddObjectResponse">
<polygon fill="#fffaf0" stroke="transparent" points="460,-279 460,-319 688,-319 688,-279 460,-279"/>
<polygon fill="#e31a1c" stroke="transparent" points="461,-299 461,-318 687,-318 687,-299 461,-299"/>
<text text-anchor="start" x="528" y="-305.8" font-family="Times,serif" font-weight="bold" font-size="14.00">AddObjectResponse</text>
<text text-anchor="start" x="467" y="-285.8" font-family="Times,serif" font-size="14.00">1</text>
<text text-anchor="start" x="481" y="-285.8" font-family="Times,serif" font-size="14.00">stored_object</text>
<polygon fill="#fb9a99" stroke="transparent" points="580,-280 580,-299 687,-299 687,-280 580,-280"/>
<text text-anchor="start" x="582" y="-286.8" font-family="Times,serif" font-weight="bold" font-size="14.00">StoredObject</text>
<polygon fill="none" stroke="black" points="460,-279 460,-319 688,-319 688,-279 460,-279"/>
</a>
</g>
</g>
<!-- Node_Ja_102&#45;&gt;Node_Ja_113 -->
<g id="edge4" class="edge">
<title>Node_Ja_102:e&#45;&gt;Node_Ja_113:header</title>
<g id="a_edge4"><a xlink:title="Ja_102 &#45;&#45;&gt; Ja_113">
<path fill="none" stroke="#000000" d="M408,-332C429.32,-332 433.69,-315.63 449.72,-310.51"/>
<polygon fill="#000000" stroke="#000000" points="450.61,-313.91 460,-309 449.6,-306.99 450.61,-313.91"/>
</a>
</g>
</g>
<!-- Node_Ja_109 -->
<g id="node6" class="node">
<title>Node_Ja_109</title>
<g id="a_node6"><a xlink:title="rsdk.examples.v1.GetObjectStreamRequest">
<polygon fill="#fffaf0" stroke="transparent" points="470,-497 470,-537 678,-537 678,-497 470,-497"/>
<polygon fill="#e31a1c" stroke="transparent" points="471,-517 471,-536 677,-536 677,-517 471,-517"/>
<text text-anchor="start" x="473" y="-523.8" font-family="Times,serif" font-weight="bold" font-size="14.00">GetObjectStreamRequest</text>
<text text-anchor="start" x="561" y="-503.8" font-family="Times,serif" font-size="14.00">1</text>
<text text-anchor="start" x="575" y="-503.8" font-family="Times,serif" font-size="14.00">key</text>
<polygon fill="#a6cee3" stroke="transparent" points="616,-498 616,-517 677,-517 677,-498 616,-498"/>
<text text-anchor="start" x="632" y="-504.8" font-family="Times,serif" font-style="italic" font-size="14.00">string</text>
<polygon fill="none" stroke="black" points="470,-497 470,-537 678,-537 678,-497 470,-497"/>
</a>
</g>
</g>
<!-- Node_Ja_102&#45;&gt;Node_Ja_109 -->
<g id="edge5" class="edge">
<title>Node_Ja_102:e&#45;&gt;Node_Ja_109:header</title>
<g id="a_edge5"><a xlink:title="Ja_102 &#45;&#45;&gt; Ja_109">
<path fill="none" stroke="#000000" d="M408,-390C471.05,-390 410.84,-511.92 459.93,-525.73"/>
<polygon fill="#000000" stroke="#000000" points="459.64,-529.22 470,-527 460.52,-522.28 459.64,-529.22"/>
</a>
</g>
</g>
<!-- Node_Ja_111 -->
<g id="node7" class="node">
<title>Node_Ja_111</title>
<g id="a_node7"><a xlink:title="rsdk.examples.v1.GetObjectStreamResponse">
<polygon fill="#fffaf0" stroke="transparent" points="465,-411.5 465,-470.5 683,-470.5 683,-411.5 465,-411.5"/>
<polygon fill="#e31a1c" stroke="transparent" points="466,-450 466,-469 682,-469 682,-450 466,-450"/>
<text text-anchor="start" x="468" y="-456.8" font-family="Times,serif" font-weight="bold" font-size="14.00">GetObjectStreamResponse</text>
<text text-anchor="start" x="542" y="-436.8" font-family="Times,serif" font-size="14.00">1</text>
<text text-anchor="start" x="556" y="-436.8" font-family="Times,serif" font-size="14.00">key</text>
<polygon fill="#a6cee3" stroke="transparent" points="614,-431 614,-450 682,-450 682,-431 614,-431"/>
<text text-anchor="start" x="637" y="-437.8" font-family="Times,serif" font-style="italic" font-size="14.00">string</text>
<text text-anchor="start" x="542" y="-417.8" font-family="Times,serif" font-size="14.00">2</text>
<text text-anchor="start" x="556" y="-417.8" font-family="Times,serif" font-size="14.00">object</text>
<polygon fill="#fb9a99" stroke="transparent" points="614,-412 614,-431 682,-431 682,-412 614,-412"/>
<text text-anchor="start" x="628" y="-418.8" font-family="Times,serif" font-weight="bold" font-size="14.00">Object</text>
<polygon fill="none" stroke="black" points="465,-411.5 465,-470.5 683,-470.5 683,-411.5 465,-411.5"/>
</a>
</g>
</g>
<!-- Node_Ja_102&#45;&gt;Node_Ja_111 -->
<g id="edge6" class="edge">
<title>Node_Ja_102:e&#45;&gt;Node_Ja_111:header</title>
<g id="a_edge6"><a xlink:title="Ja_102 &#45;&#45;&gt; Ja_111">
<path fill="none" stroke="#000000" d="M408,-371C451.12,-371 423.52,-446 455.04,-458.3"/>
<polygon fill="#000000" stroke="#000000" points="454.55,-461.77 465,-460 455.73,-454.87 454.55,-461.77"/>
</a>
</g>
</g>
<!-- Node_Ja_108 -->
<g id="node8" class="node">
<title>Node_Ja_108</title>
<g id="a_node8"><a xlink:title="rsdk.examples.v1.GetObjectRequest">
<polygon fill="#fffaf0" stroke="transparent" points="498.5,-649 498.5,-689 649.5,-689 649.5,-649 498.5,-649"/>
<polygon fill="#e31a1c" stroke="transparent" points="500,-669 500,-688 649,-688 649,-669 500,-669"/>
<text text-anchor="start" x="502" y="-675.8" font-family="Times,serif" font-weight="bold" font-size="14.00">GetObjectRequest</text>
<text text-anchor="start" x="547" y="-655.8" font-family="Times,serif" font-size="14.00">1</text>
<text text-anchor="start" x="561" y="-655.8" font-family="Times,serif" font-size="14.00">key</text>
<polygon fill="#a6cee3" stroke="transparent" points="595,-650 595,-669 649,-669 649,-650 595,-650"/>
<text text-anchor="start" x="604" y="-656.8" font-family="Times,serif" font-style="italic" font-size="14.00">string</text>
<polygon fill="none" stroke="black" points="498.5,-649 498.5,-689 649.5,-689 649.5,-649 498.5,-649"/>
</a>
</g>
</g>
<!-- Node_Ja_102&#45;&gt;Node_Ja_108 -->
<g id="edge7" class="edge">
<title>Node_Ja_102:e&#45;&gt;Node_Ja_108:header</title>
<g id="a_edge7"><a xlink:title="Ja_102 &#45;&#45;&gt; Ja_108">
<path fill="none" stroke="#000000" d="M408,-428C502.49,-428 405.12,-553.96 452,-636 464.18,-657.32 469.29,-674 488.89,-678.05"/>
<polygon fill="#000000" stroke="#000000" points="488.72,-681.55 499,-679 489.37,-674.58 488.72,-681.55"/>
</a>
</g>
</g>
<!-- Node_Ja_110 -->
<g id="node9" class="node">
<title>Node_Ja_110</title>
<g id="a_node9"><a xlink:title="rsdk.examples.v1.GetObjectResponse">
<polygon fill="#fffaf0" stroke="transparent" points="493.5,-563.5 493.5,-622.5 654.5,-622.5 654.5,-563.5 493.5,-563.5"/>
<polygon fill="#e31a1c" stroke="transparent" points="495,-602 495,-621 654,-621 654,-602 495,-602"/>
<text text-anchor="start" x="497" y="-608.8" font-family="Times,serif" font-weight="bold" font-size="14.00">GetObjectResponse</text>
<text text-anchor="start" x="528" y="-588.8" font-family="Times,serif" font-size="14.00">1</text>
<text text-anchor="start" x="542" y="-588.8" font-family="Times,serif" font-size="14.00">key</text>
<polygon fill="#a6cee3" stroke="transparent" points="593,-583 593,-602 654,-602 654,-583 593,-583"/>
<text text-anchor="start" x="609" y="-589.8" font-family="Times,serif" font-style="italic" font-size="14.00">string</text>
<text text-anchor="start" x="528" y="-569.8" font-family="Times,serif" font-size="14.00">2</text>
<text text-anchor="start" x="542" y="-569.8" font-family="Times,serif" font-size="14.00">object</text>
<polygon fill="#fb9a99" stroke="transparent" points="593,-564 593,-583 654,-583 654,-564 593,-564"/>
<text text-anchor="start" x="600" y="-570.8" font-family="Times,serif" font-weight="bold" font-size="14.00">Object</text>
<polygon fill="none" stroke="black" points="493.5,-563.5 493.5,-622.5 654.5,-622.5 654.5,-563.5 493.5,-563.5"/>
</a>
</g>
</g>
<!-- Node_Ja_102&#45;&gt;Node_Ja_110 -->
<g id="edge8" class="edge">
<title>Node_Ja_102:e&#45;&gt;Node_Ja_110:header</title>
<g id="a_edge8"><a xlink:title="Ja_102 &#45;&#45;&gt; Ja_110">
<path fill="none" stroke="#000000" d="M408,-409C473.65,-409 423.51,-490.86 452,-550 464.75,-576.47 461.78,-604.52 483.81,-610.74"/>
<polygon fill="#000000" stroke="#000000" points="483.65,-614.24 494,-612 484.51,-607.3 483.65,-614.24"/>
</a>
</g>
</g>
<!-- Node_Ja_116 -->
<g id="node10" class="node">
<title>Node_Ja_116</title>
<g id="a_node10"><a xlink:title="rsdk.examples.v1.RemoveObjectRequest">
<polygon fill="#fffaf0" stroke="transparent" points="481.5,-81 481.5,-121 666.5,-121 666.5,-81 481.5,-81"/>
<polygon fill="#e31a1c" stroke="transparent" points="483,-101 483,-120 666,-120 666,-101 483,-101"/>
<text text-anchor="start" x="485" y="-107.8" font-family="Times,serif" font-weight="bold" font-size="14.00">RemoveObjectRequest</text>
<text text-anchor="start" x="555" y="-87.8" font-family="Times,serif" font-size="14.00">1</text>
<text text-anchor="start" x="569" y="-87.8" font-family="Times,serif" font-size="14.00">key</text>
<polygon fill="#a6cee3" stroke="transparent" points="607,-82 607,-101 666,-101 666,-82 607,-82"/>
<text text-anchor="start" x="621" y="-88.8" font-family="Times,serif" font-style="italic" font-size="14.00">string</text>
<polygon fill="none" stroke="black" points="481.5,-81 481.5,-121 666.5,-121 666.5,-81 481.5,-81"/>
</a>
</g>
</g>
<!-- Node_Ja_102&#45;&gt;Node_Ja_116 -->
<g id="edge9" class="edge">
<title>Node_Ja_102:e&#45;&gt;Node_Ja_116:header</title>
<g id="a_edge9"><a xlink:title="Ja_102 &#45;&#45;&gt; Ja_116">
<path fill="none" stroke="#000000" d="M408,-275C484.22,-275 409.73,-126.01 471.81,-112.05"/>
<polygon fill="#000000" stroke="#000000" points="472.41,-115.5 482,-111 471.69,-108.54 472.41,-115.5"/>
</a>
</g>
</g>
<!-- Node_Ja_117 -->
<g id="node11" class="node">
<title>Node_Ja_117</title>
<g id="a_node11"><a xlink:title="rsdk.examples.v1.RemoveObjectResponse">
<polygon fill="#fffaf0" stroke="transparent" points="475,-30.5 475,-51.5 673,-51.5 673,-30.5 475,-30.5"/>
<polygon fill="#e31a1c" stroke="transparent" points="476,-31 476,-50 672,-50 672,-31 476,-31"/>
<text text-anchor="start" x="480" y="-37.8" font-family="Times,serif" font-weight="bold" font-size="14.00">RemoveObjectResponse</text>
<polygon fill="none" stroke="black" points="475,-30.5 475,-51.5 673,-51.5 673,-30.5 475,-30.5"/>
</a>
</g>
</g>
<!-- Node_Ja_102&#45;&gt;Node_Ja_117 -->
<g id="edge10" class="edge">
<title>Node_Ja_102:e&#45;&gt;Node_Ja_117:header</title>
<g id="a_edge10"><a xlink:title="Ja_102 &#45;&#45;&gt; Ja_117">
<path fill="none" stroke="#000000" d="M408,-256C493.81,-256 391.24,-128.6 452,-68 457.41,-62.61 463.63,-58.17 470.34,-54.53"/>
<polygon fill="#000000" stroke="#000000" points="472.25,-57.5 479.77,-50.04 469.24,-51.18 472.25,-57.5"/>
</a>
</g>
</g>
<!-- Node_Ja_100 -->
<g id="node12" class="node">
<title>Node_Ja_100</title>
<g id="a_node12"><a xlink:title="rsdk.examples.v1.Object">
<polygon fill="#fffaf0" stroke="transparent" points="740,-320 740,-398 904,-398 904,-320 740,-320"/>
<polygon fill="#e31a1c" stroke="transparent" points="741,-378 741,-397 903,-397 903,-378 741,-378"/>
<text text-anchor="start" x="849" y="-384.8" font-family="Times,serif" font-weight="bold" font-size="14.00">Object</text>
<text text-anchor="start" x="747" y="-364.8" font-family="Times,serif" font-size="14.00">1</text>
<text text-anchor="start" x="761" y="-364.8" font-family="Times,serif" font-size="14.00">filename</text>
<polygon fill="#a6cee3" stroke="transparent" points="856,-359 856,-378 903,-378 903,-359 856,-359"/>
<text text-anchor="start" x="858" y="-365.8" font-family="Times,serif" font-style="italic" font-size="14.00">string</text>
<text text-anchor="start" x="747" y="-345.8" font-family="Times,serif" font-size="14.00">2</text>
<text text-anchor="start" x="761" y="-345.8" font-family="Times,serif" font-size="14.00">content</text>
<polygon fill="#a6cee3" stroke="transparent" points="856,-340 856,-359 903,-359 903,-340 856,-340"/>
<text text-anchor="start" x="861" y="-346.8" font-family="Times,serif" font-style="italic" font-size="14.00">bytes</text>
<text text-anchor="start" x="747" y="-326.8" font-family="Times,serif" font-size="14.00">3</text>
<text text-anchor="start" x="761" y="-326.8" font-family="Times,serif" font-size="14.00">content_type</text>
<polygon fill="#a6cee3" stroke="transparent" points="856,-321 856,-340 903,-340 903,-321 856,-321"/>
<text text-anchor="start" x="858" y="-327.8" font-family="Times,serif" font-style="italic" font-size="14.00">string</text>
<polygon fill="none" stroke="black" points="740,-320 740,-398 904,-398 904,-320 740,-320"/>
</a>
</g>
</g>
<!-- Node_Ja_114&#45;&gt;Node_Ja_100 -->
<g id="edge15" class="edge">
<title>Node_Ja_114:e&#45;&gt;Node_Ja_100:header</title>
<g id="a_edge15"><a xlink:title="Ja_114 &#45;&#45;&gt; Ja_100">
<path fill="none" stroke="#000000" d="M679,-223C753.37,-223 670.72,-372.28 729.75,-386.86"/>
<polygon fill="#000000" stroke="#000000" points="729.67,-390.37 740,-388 730.45,-383.41 729.67,-390.37"/>
</a>
</g>
</g>
<!-- Node_Ja_101 -->
<g id="node13" class="node">
<title>Node_Ja_101</title>
<g id="a_node13"><a xlink:title="rsdk.examples.v1.StoredObject">
<polygon fill="#fffaf0" stroke="transparent" points="754,-121 754,-199 890,-199 890,-121 754,-121"/>
<polygon fill="#e31a1c" stroke="transparent" points="755,-179 755,-198 889,-198 889,-179 755,-179"/>
<text text-anchor="start" x="784" y="-185.8" font-family="Times,serif" font-weight="bold" font-size="14.00">StoredObject</text>
<text text-anchor="start" x="761" y="-165.8" font-family="Times,serif" font-size="14.00">1</text>
<text text-anchor="start" x="775" y="-165.8" font-family="Times,serif" font-size="14.00">key</text>
<polygon fill="#a6cee3" stroke="transparent" points="838,-160 838,-179 889,-179 889,-160 838,-160"/>
<text text-anchor="start" x="844" y="-166.8" font-family="Times,serif" font-style="italic" font-size="14.00">string</text>
<text text-anchor="start" x="761" y="-146.8" font-family="Times,serif" font-size="14.00">2</text>
<text text-anchor="start" x="775" y="-146.8" font-family="Times,serif" font-size="14.00">filename</text>
<polygon fill="#a6cee3" stroke="transparent" points="838,-141 838,-160 889,-160 889,-141 838,-141"/>
<text text-anchor="start" x="844" y="-147.8" font-family="Times,serif" font-style="italic" font-size="14.00">string</text>
<text text-anchor="start" x="761" y="-127.8" font-family="Times,serif" font-size="14.00">3</text>
<text text-anchor="start" x="775" y="-127.8" font-family="Times,serif" font-size="14.00">size</text>
<polygon fill="#a6cee3" stroke="transparent" points="838,-122 838,-141 889,-141 889,-122 838,-122"/>
<text text-anchor="start" x="840" y="-128.8" font-family="Times,serif" font-style="italic" font-size="14.00">uint32</text>
<polygon fill="none" stroke="black" points="754,-121 754,-199 890,-199 890,-121 754,-121"/>
</a>
</g>
</g>
<!-- Node_Ja_115&#45;&gt;Node_Ja_101 -->
<g id="edge16" class="edge">
<title>Node_Ja_115:e&#45;&gt;Node_Ja_101:header</title>
<g id="a_edge16"><a xlink:title="Ja_115 &#45;&#45;&gt; Ja_101">
<path fill="none" stroke="#000000" d="M688,-157C716.91,-157 720.81,-182.16 744.05,-187.86"/>
<polygon fill="#000000" stroke="#000000" points="743.67,-191.34 754,-189 744.46,-184.39 743.67,-191.34"/>
</a>
</g>
</g>
<!-- Node_Ja_112&#45;&gt;Node_Ja_100 -->
<g id="edge13" class="edge">
<title>Node_Ja_112:e&#45;&gt;Node_Ja_100:header</title>
<g id="a_edge13"><a xlink:title="Ja_112 &#45;&#45;&gt; Ja_100">
<path fill="none" stroke="#000000" d="M651,-355C689.56,-355 696.74,-382.57 729.91,-387.31"/>
<polygon fill="#000000" stroke="#000000" points="729.78,-390.81 740,-388 730.26,-383.83 729.78,-390.81"/>
</a>
</g>
</g>
<!-- Node_Ja_113&#45;&gt;Node_Ja_101 -->
<g id="edge14" class="edge">
<title>Node_Ja_113:e&#45;&gt;Node_Ja_101:header</title>
<g id="a_edge14"><a xlink:title="Ja_113 &#45;&#45;&gt; Ja_101">
<path fill="none" stroke="#000000" d="M688,-289C737.51,-289 705.98,-202.57 744.09,-190.41"/>
<polygon fill="#000000" stroke="#000000" points="744.59,-193.88 754,-189 743.61,-186.95 744.59,-193.88"/>
</a>
</g>
</g>
<!-- Node_Ja_111&#45;&gt;Node_Ja_100 -->
<g id="edge12" class="edge">
<title>Node_Ja_111:e&#45;&gt;Node_Ja_100:header</title>
<g id="a_edge12"><a xlink:title="Ja_111 &#45;&#45;&gt; Ja_100">
<path fill="none" stroke="#000000" d="M683,-421C708.5,-421 710.61,-395.96 730.08,-389.5"/>
<polygon fill="#000000" stroke="#000000" points="730.64,-392.96 740,-388 729.59,-386.04 730.64,-392.96"/>
</a>
</g>
</g>
<!-- Node_Ja_110&#45;&gt;Node_Ja_100 -->
<g id="edge11" class="edge">
<title>Node_Ja_110:e&#45;&gt;Node_Ja_100:header</title>
<g id="a_edge11"><a xlink:title="Ja_110 &#45;&#45;&gt; Ja_100">
<path fill="none" stroke="#000000" d="M655,-573C675.89,-573 683.15,-566.48 696,-550 739.55,-494.16 672.84,-398.36 729.77,-388.78"/>
<polygon fill="#000000" stroke="#000000" points="730.29,-392.25 740,-388 729.76,-385.27 730.29,-392.25"/>
</a>
</g>
</g>
</g>
</svg>
